<svg xmlns="http://www.w3.org/2000/svg" viewBox="0 0 1300 900">
  <defs>
    <style>
      .cls-1 {
        fill: #0c0a09;
      }

      .cls-1, .cls-2, .cls-3 {
        stroke-width: 0px;
      }

      .cls-2 {
        fill: #fff;
      }

      .cls-3 {
        fill: #ec4f27;
      }
    </style>
  </defs>
  <rect class="cls-1" x="-16.38" y="-11.34" width="1332.75" height="922.68"/>
  <g>
    <g>
      <polygon class="cls-3" points="428.87 461.46 413.35 468.97 399.21 463.17 414.73 455.66 428.87 461.46"/>
      <path class="cls-3" d="M448.17,452.12l-13.76,6.65-20.05-8.22c-7.28-2.99-7.6-13.19-.51-16.61l34.44-16.67,14.14,5.8-36,17.42c-1.18.57-1.12,2.26.08,2.76l21.65,8.87Z"/>
      <polygon class="cls-3" points="453.1 433.12 468.62 425.6 482.76 431.4 467.24 438.91 453.1 433.12"/>
      <path class="cls-3" d="M433.79,442.46l13.76-6.65,20.05,8.22c7.28,2.99,7.6,13.19.51,16.61l-34.44,16.67-14.14-5.8,36-17.42c1.18-.57,1.12-2.26-.08-2.76l-21.65-8.87Z"/>
    </g>
    <g>
      <path class="cls-2" d="M520.9,453.27c-1.59-1.35-3.49-2.32-5.68-2.92-2.19-.59-4.37-1.1-6.54-1.53-2.17-.42-4.04-.93-5.61-1.53-1.57-.6-2.38-1.16-2.43-1.68-.05-.53-.07-.81-.07-.86,0-.85.5-1.57,1.49-2.17,1.05-.65,2.52-.97,4.41-.97,1.15,0,2.15.14,2.99.41.85.27,1.47.57,1.87.9.4.32.73.68.98,1.08.24.4.39.69.44.86.05.18.08.31.08.41h9.79l-.15-1.05c-.1-.74-.45-1.64-1.04-2.69-.6-1.04-1.41-2.09-2.43-3.14-1.03-1.04-2.65-1.93-4.86-2.65-2.22-.72-4.8-1.08-7.74-1.08-4.74,0-8.47,1.04-11.21,3.14-2.75,2.09-4.12,4.46-4.12,7.1v.67c.15,2.49,1.41,4.47,3.78,5.94,2.37,1.47,4.91,2.42,7.62,2.84,2.72.43,5.2,1.01,7.44,1.76,2.25.75,3.39,1.72,3.44,2.92v.15c0,2.39-1.99,3.58-5.98,3.58h-.22c-1.4,0-2.6-.18-3.59-.56-1-.37-1.72-.78-2.17-1.23s-.8-.97-1.05-1.57c-.25-.6-.38-1.01-.41-1.23-.02-.23-.03-.41-.03-.56h-9.72l.15,1.27c.1.85.46,1.85,1.08,3.02.62,1.18,1.46,2.36,2.51,3.56,1.04,1.19,2.67,2.21,4.89,3.06,2.22.85,4.8,1.27,7.74,1.27,5.68,0,9.92-.99,12.71-2.99,2.79-1.99,4.18-4.51,4.18-7.55v-.82c-.1-2.09-.94-3.81-2.54-5.16Z"/>
      <path class="cls-2" d="M552.23,435.4l-9.8,23.55-9.72-23.55h-10.09l15.03,33.64h9.57l15.1-33.64h-10.09Z"/>
      <path class="cls-2" d="M596.26,452.3c0-5.33-1.53-9.61-4.6-12.82-3.06-3.22-7.34-4.82-12.82-4.82s-9.97,1.62-13.16,4.85c-3.19,3.29-4.78,7.56-4.78,12.79s1.65,9.58,4.97,12.74c3.31,3.17,7.66,4.75,13.05,4.75,2.69,0,5.1-.4,7.25-1.19,2.14-.8,3.76-1.69,4.86-2.66,1.09-.97,2.03-2.09,2.8-3.36.77-1.27,1.24-2.16,1.42-2.66.17-.49.29-.89.34-1.19h-9.65l-.15.37c-.1.25-.31.55-.63.9-.33.35-.73.68-1.2,1.01-.47.32-1.15.61-2.02.86-.87.25-1.86.37-2.95.37-2.34,0-4.32-.65-5.94-1.94-1.62-1.3-2.53-3.04-2.73-5.24h25.79c.1-.94.15-1.86.15-2.76ZM586.91,448.64h-16.59c.3-1.9,1.21-3.44,2.73-4.64s3.47-1.79,5.87-1.79,4.26.56,5.75,1.68c1.5,1.12,2.24,2.63,2.24,4.52v.23Z"/>
      <path class="cls-2" d="M624.67,457.83c-.3,1-1.08,1.98-2.32,2.95-1.25.98-2.82,1.46-4.71,1.46-2.79,0-4.94-.93-6.43-2.8-1.5-1.87-2.24-4.38-2.24-7.52s.73-5.48,2.2-7.17c1.47-1.7,3.63-2.54,6.47-2.54,1.19,0,2.28.16,3.25.48.97.33,1.69.69,2.17,1.09.47.4.9.84,1.27,1.34.37.5.58.86.63,1.09.05.22.1.38.15.48h9.8l-.23-1.27c-.1-.8-.5-1.79-1.19-2.99-.7-1.2-1.6-2.38-2.69-3.55-1.1-1.17-2.81-2.17-5.13-2.99-2.31-.82-4.99-1.23-8.03-1.23-5.78,0-10.29,1.57-13.53,4.71-3.29,3.19-4.94,7.37-4.94,12.55,0,5.54,1.62,9.9,4.86,13.09,3.24,3.19,7.78,4.78,13.61,4.78,2.99,0,5.63-.48,7.92-1.46,2.29-.97,3.99-2.04,5.09-3.21,1.09-1.17,2-2.53,2.72-4.07.73-1.55,1.14-2.62,1.24-3.22.1-.6.17-1.07.22-1.42h-9.72l-.44,1.42Z"/>
      <path class="cls-2" d="M670.08,439.66c-3.41-3.33-8.09-5-14.02-5s-10.59,1.67-13.98,5c-3.44,3.34-5.16,7.53-5.16,12.56s1.71,9.16,5.13,12.53c3.41,3.36,8.08,5.04,14.01,5.04s10.62-1.67,14.06-5.01c3.39-3.29,5.08-7.47,5.08-12.56s-1.71-9.22-5.12-12.56ZM662.98,459.36c-1.62,1.92-3.93,2.88-6.92,2.88s-5.35-.94-6.95-2.84c-1.6-1.89-2.39-4.29-2.39-7.18s.79-5.4,2.39-7.25c1.6-1.84,3.91-2.76,6.95-2.76s5.36.92,6.96,2.76c1.59,1.85,2.39,4.26,2.39,7.25s-.81,5.23-2.43,7.14Z"/>
      <path class="cls-2" d="M708.47,453.27c-1.6-1.35-3.49-2.32-5.68-2.92-2.2-.59-4.38-1.1-6.54-1.53-2.17-.42-4.04-.93-5.61-1.53-1.57-.6-2.38-1.16-2.43-1.68-.05-.53-.08-.81-.08-.86,0-.85.5-1.57,1.5-2.17,1.05-.65,2.52-.97,4.41-.97,1.15,0,2.14.14,2.99.41.85.27,1.47.57,1.87.9.4.32.72.68.97,1.08.25.4.4.69.45.86.05.18.07.31.07.41h9.8l-.15-1.05c-.1-.74-.45-1.64-1.05-2.69-.6-1.04-1.41-2.09-2.43-3.14-1.02-1.04-2.64-1.93-4.86-2.65-2.22-.72-4.79-1.08-7.74-1.08-4.73,0-8.47,1.04-11.21,3.14-2.74,2.09-4.11,4.46-4.11,7.1v.67c.15,2.49,1.41,4.47,3.78,5.94,2.36,1.47,4.9,2.42,7.62,2.84,2.72.43,5.2,1.01,7.44,1.76s3.39,1.72,3.44,2.92v.15c0,2.39-2,3.58-5.98,3.58h-.23c-1.39,0-2.59-.18-3.59-.56-.99-.37-1.71-.78-2.16-1.23-.45-.45-.8-.97-1.05-1.57-.25-.6-.39-1.01-.41-1.23-.03-.23-.04-.41-.04-.56h-9.72l.15,1.27c.1.85.46,1.85,1.09,3.02.62,1.18,1.45,2.36,2.5,3.56,1.05,1.19,2.68,2.21,4.9,3.06,2.21.85,4.79,1.27,7.73,1.27,5.69,0,9.92-.99,12.71-2.99,2.79-1.99,4.19-4.51,4.19-7.55v-.82c-.1-2.09-.95-3.81-2.54-5.16Z"/>
      <path class="cls-2" d="M737.33,435.4l-8.6,22.43-8.15-22.43h-10.09l13.98,33.35-1.27,3.36c-.45,1.05-.91,1.73-1.39,2.06-.47.32-1.33.48-2.58.48h-6.05v8.08h6.05c1.75,0,3.24-.15,4.49-.45,1.24-.3,2.27-.68,3.06-1.13.8-.44,1.55-1.18,2.25-2.2.69-1.02,1.26-1.97,1.68-2.84s.98-2.21,1.68-4l14.95-36.71h-10.01Z"/>
      <path class="cls-2" d="M777.4,453.27c-1.6-1.35-3.49-2.32-5.69-2.92-2.19-.59-4.37-1.1-6.54-1.53-2.17-.42-4.04-.93-5.6-1.53-1.57-.6-2.39-1.16-2.43-1.68-.06-.53-.08-.81-.08-.86,0-.85.5-1.57,1.5-2.17,1.04-.65,2.51-.97,4.41-.97,1.14,0,2.14.14,2.99.41.84.27,1.47.57,1.87.9.39.32.72.68.97,1.08.25.4.4.69.45.86.05.18.07.31.07.41h9.79l-.15-1.05c-.1-.74-.44-1.64-1.04-2.69-.6-1.04-1.41-2.09-2.43-3.14-1.02-1.04-2.64-1.93-4.86-2.65-2.22-.72-4.8-1.08-7.74-1.08-4.73,0-8.47,1.04-11.21,3.14-2.74,2.09-4.11,4.46-4.11,7.1v.67c.15,2.49,1.4,4.47,3.77,5.94,2.37,1.47,4.91,2.42,7.63,2.84,2.71.43,5.19,1.01,7.44,1.76,2.24.75,3.38,1.72,3.43,2.92v.15c0,2.39-1.99,3.58-5.98,3.58h-.22c-1.4,0-2.59-.18-3.59-.56-1-.37-1.72-.78-2.17-1.23s-.8-.97-1.04-1.57c-.25-.6-.39-1.01-.41-1.23-.03-.23-.04-.41-.04-.56h-9.72l.15,1.27c.1.85.46,1.85,1.08,3.02.63,1.18,1.46,2.36,2.51,3.56,1.04,1.19,2.68,2.21,4.89,3.06,2.22.85,4.8,1.27,7.74,1.27,5.68,0,9.92-.99,12.71-2.99,2.79-1.99,4.19-4.51,4.19-7.55v-.82c-.1-2.09-.95-3.81-2.54-5.16Z"/>
      <path class="cls-2" d="M784.09,443.48v14.95c0,4.29.86,7.13,2.58,8.52,1.72,1.4,4.9,2.09,9.53,2.09h5.61v-8.07h-5.61c-.89,0-1.52-.19-1.87-.56-.35-.37-.52-1.03-.52-1.98v-14.95h-9.72ZM801.81,435.4h-8.07v-9.86h-9.65v9.86l9.72,8.08h8v-8.08Z"/>
      <path class="cls-2" d="M838.74,452.3c0-5.33-1.53-9.61-4.6-12.82-3.06-3.22-7.34-4.82-12.82-4.82s-9.97,1.62-13.15,4.85c-3.19,3.29-4.79,7.56-4.79,12.79s1.66,9.58,4.97,12.74c3.32,3.17,7.67,4.75,13.05,4.75,2.69,0,5.11-.4,7.25-1.19,2.14-.8,3.76-1.69,4.86-2.66,1.09-.97,2.03-2.09,2.8-3.36.77-1.27,1.25-2.16,1.42-2.66.18-.49.29-.89.34-1.19h-9.64l-.16.37c-.09.25-.31.55-.63.9-.32.35-.72.68-1.2,1.01-.47.32-1.14.61-2.01.86-.88.25-1.86.37-2.96.37-2.34,0-4.32-.65-5.94-1.94-1.62-1.3-2.53-3.04-2.73-5.24h25.79c.1-.94.15-1.86.15-2.76ZM829.4,448.64h-16.6c.3-1.9,1.21-3.44,2.73-4.64s3.48-1.79,5.87-1.79,4.26.56,5.75,1.68c1.5,1.12,2.25,2.63,2.25,4.52v.23Z"/>
      <path class="cls-2" d="M897.58,438.73c-2.15-2.72-5.71-4.07-10.69-4.07h-.83c-5.08.15-8.92,2.21-11.51,6.2-2.09-4.14-6.15-6.2-12.19-6.2h-.67c-4.53.15-7.87,1.99-10.02,5.53v-4.79h-9.27v33.64h9.65v-15.4c0-3.88.63-6.75,1.9-8.59,1.28-1.85,3.43-2.77,6.47-2.77,1.99,0,3.55.72,4.67,2.17,1.13,1.44,1.69,3.56,1.69,6.35v18.24h9.64v-15.4c0-3.88.64-6.75,1.91-8.59,1.27-1.85,3.42-2.77,6.46-2.77,2,0,3.55.72,4.68,2.17,1.12,1.44,1.68,3.56,1.68,6.35v18.24h9.64v-18.24c0-5.33-1.07-9.35-3.21-12.07Z"/>
    </g>
  </g>
</svg>